<svg width="25" height="25" viewBox="0 0 25 25" fill="none" xmlns="http://www.w3.org/2000/svg">
<path d="M3.4165 6.55334H5.4165H21.4165" stroke="#E83F5B" stroke-width="2" stroke-linecap="round" stroke-linejoin="round"/>
<path d="M8.4165 6.55334V4.55334C8.4165 4.02291 8.62722 3.5142 9.00229 3.13913C9.37736 2.76406 9.88607 2.55334 10.4165 2.55334H14.4165C14.9469 2.55334 15.4556 2.76406 15.8307 3.13913C16.2058 3.5142 16.4165 4.02291 16.4165 4.55334V6.55334M19.4165 6.55334V20.5533C19.4165 21.0838 19.2058 21.5925 18.8307 21.9676C18.4556 22.3426 17.9469 22.5533 17.4165 22.5533H7.4165C6.88607 22.5533 6.37736 22.3426 6.00229 21.9676C5.62722 21.5925 5.4165 21.0838 5.4165 20.5533V6.55334H19.4165Z" stroke="#E83F5B" stroke-width="2" stroke-linecap="round" stroke-linejoin="round"/>
</svg>
